<svg width="78" height="84" viewBox="0 0 78 84" fill="none" xmlns="http://www.w3.org/2000/svg">
<g clip-path="url(#clip0)">
<path d="M6.17724 0C5.46949 0 4.94222 0.629183 5.00509 1.39798L10.9713 74.4026C11.0341 75.1716 11.6432 75.9697 12.3254 76.1763L37.6429 83.845C38.3249 84.0515 39.4407 84.0515 40.1229 83.8454L65.5174 76.1642C66.1994 75.9578 66.8092 75.1598 66.8719 74.391L72.8481 1.39798C72.9114 0.629183 72.3835 0 71.6758 0H6.17724ZM60.1422 16.7433C60.0858 17.4291 59.9884 18.6197 59.9255 19.3887L59.7684 21.3041C59.705 22.0728 59.615 23.1722 59.5674 23.7469C59.5201 24.3218 59.4751 24.7921 59.4668 24.7921C59.4588 24.7921 58.8731 24.7921 58.1655 24.7921H40.2132C39.5055 24.7921 38.9206 24.7921 38.913 24.7921C38.9053 24.7921 38.3198 24.7921 37.6121 24.7921H28.1573C27.4495 24.7921 26.9222 25.4213 26.9851 26.1901L27.5366 32.9151C27.5995 33.6837 28.2302 34.3131 28.9378 34.3131H37.6122C38.32 34.3131 38.9053 34.3131 38.9131 34.3131C38.9209 34.3131 39.5058 34.3131 40.2134 34.3131H55.1235C55.8313 34.3131 56.9264 34.3131 57.5571 34.3131C58.1874 34.3131 58.6568 34.8743 58.5997 35.5601C58.5422 36.2459 58.4442 37.4368 58.3814 38.2055L56.6082 59.8864C56.5449 60.6554 56.4649 61.6377 56.4304 62.0695C56.3952 62.501 55.8087 63.0228 55.1267 63.2292L40.1666 67.7544C39.4846 67.9605 38.9181 68.1311 38.9074 68.1338C38.8969 68.1362 38.3305 67.9692 37.6482 67.763L22.6722 63.2296C21.9902 63.0232 21.3808 62.2252 21.3181 61.4562L20.354 49.6527C20.2912 48.8837 20.8191 48.2545 21.5268 48.2545H22.8936C23.6013 48.2545 24.7593 48.2545 25.4669 48.2545H27.505C28.2128 48.2545 28.8429 48.8837 28.9062 49.6527L29.2843 54.2733C29.3472 55.0423 29.9573 55.8359 30.6407 56.0372L37.6458 58.1009C38.3287 58.3022 38.8903 58.467 38.8934 58.467C38.8966 58.467 39.4578 58.3019 40.1411 58.1006L47.1588 56.0319C47.8417 55.8306 48.4524 55.0367 48.5158 54.2681L49.2767 45.0105C49.3401 44.2415 48.8128 43.6123 48.105 43.6123H40.2134C39.5056 43.6123 38.9208 43.6123 38.9131 43.6123C38.9054 43.6123 38.32 43.6123 37.6122 43.6123H21.1453C20.4375 43.6123 19.8074 42.983 19.7445 42.2143L17.8772 19.3889C17.8144 18.6199 17.7169 17.4296 17.6605 16.7435C17.6047 16.0577 18.1376 15.4964 18.8453 15.4964H37.6122C38.32 15.4964 38.9053 15.4964 38.9131 15.4964C38.9209 15.4964 39.5058 15.4964 40.2134 15.4964H58.9576C59.6652 15.4961 60.1983 16.0572 60.1422 16.7433Z" fill="#DD512A"/>
</g>
<defs>
<clipPath id="clip0">
<rect width="77.8532" height="83.9999" fill="white"/>
</clipPath>
</defs>
</svg>
